<?xml version="1.0" standalone="no"?>
<!DOCTYPE svg PUBLIC "-//W3C//DTD SVG 20010904//EN"
 "http://www.w3.org/TR/2001/REC-SVG-20010904/DTD/svg10.dtd">
<svg version="1.0" xmlns="http://www.w3.org/2000/svg"
 width="512.000000pt" height="512.000000pt" viewBox="0 0 512.000000 512.000000"
 preserveAspectRatio="xMidYMid meet">
<metadata>
Created by potrace 1.14, written by Peter Selinger 2001-2017
</metadata>
<g transform="translate(0.000000,512.000000) scale(0.100000,-0.100000)"
fill="#000000" stroke="none">
<path d="M1856 4876 c-8 -17 -26 -58 -41 -91 -48 -106 -72 -158 -105 -229 -17
-38 -52 -115 -77 -170 -53 -120 -76 -170 -113 -251 -15 -33 -37 -81 -49 -107
-55 -124 -65 -146 -86 -193 -13 -27 -80 -176 -150 -330 -70 -154 -137 -300
-148 -325 -11 -25 -21 -47 -22 -50 -4 -10 -36 -81 -80 -175 -25 -53 -45 -99
-45 -101 0 -2 -15 -36 -34 -76 -91 -196 -116 -250 -116 -253 0 -2 -16 -39 -36
-82 -20 -43 -56 -123 -81 -178 -60 -133 -72 -160 -164 -362 -44 -95 -79 -174
-79 -176 0 -2 311 -4 690 -4 380 0 693 -2 696 -5 5 -5 -11 -41 -99 -228 -83
-176 -131 -278 -154 -330 -14 -30 -54 -115 -89 -189 -35 -73 -64 -135 -64
-137 0 -1 -29 -62 -64 -136 -35 -73 -73 -155 -86 -183 -40 -88 -102 -219 -121
-258 -11 -20 -17 -37 -15 -37 2 0 102 77 223 170 120 94 231 181 247 193 16
12 64 49 105 82 42 33 92 72 111 87 60 46 294 228 310 241 8 7 56 44 105 82
50 38 95 74 102 80 21 17 36 29 103 80 36 27 70 53 75 58 6 4 109 85 230 179
121 94 263 206 317 247 53 42 140 110 193 151 53 41 145 112 203 158 59 46
121 94 137 107 17 12 64 49 105 81 41 33 93 72 115 88 22 16 45 34 50 40 6 6
48 40 95 76 47 35 92 70 100 77 21 17 328 256 490 381 74 57 139 108 143 112
4 4 -402 7 -903 7 -501 1 -914 4 -918 8 -3 3 -2 9 4 13 5 4 47 55 92 115 137
179 246 321 255 332 14 18 164 213 426 554 352 459 410 533 545 711 65 85 122
160 127 166 6 7 -346 10 -1216 10 l-1225 0 -14 -30z"/>
</g>
</svg>
